<svg width="20" height="18" viewBox="0 0 20 18" fill="none" xmlns="http://www.w3.org/2000/svg">
<path d="M5.45412 12.5199L4.60254 13.3068C4.8737 13.6252 5.16828 13.921 5.48365 14.1915L6.20352 13.273C5.93502 13.0431 5.68444 12.7912 5.45412 12.5199Z" transform="translate(1 1)" fill="#0070CC"/>
<path d="M4.3351 10.6865L3.29163 11.154C3.45297 11.5465 3.64454 11.9245 3.86446 12.2846L4.82221 11.6494C4.63543 11.3425 4.47253 11.0206 4.3351 10.6865Z" transform="translate(1 1)" fill="#0070CC"/>
<path d="M14.1787 1.07903C13.0113 0.3726 11.686 0.000370341 10.3365 0C6.49855 0.00644393 3.25604 2.97299 2.74721 6.94345L0.802761 4.91398L0 5.75184L3.24 9.13349L6.48 5.75184L5.67724 4.91398L3.92127 6.74435C4.58845 3.0499 7.9988 0.619506 11.5385 1.31586C15.0782 2.01221 17.4068 5.57167 16.7396 9.26608C16.0724 12.9605 12.662 15.391 9.12236 14.6946C8.39677 14.5518 7.69968 14.2815 7.06078 13.8952L6.49022 14.9197C10.1521 17.1356 14.8418 15.8336 16.9649 12.0116C19.088 8.18968 17.8406 3.29496 14.1787 1.07903Z" transform="translate(1 1)" fill="#0070CC"/>
<path d="M9.48499 2.66644V9.18444L11.983 11.1398L12.6642 10.1918L10.6204 8.5919V2.66644H9.48499Z" transform="translate(1 1)" fill="#0070CC"/>
<path d="M5.45412 12.5199L5.54942 12.439L5.46505 12.3396L5.36929 12.4281L5.45412 12.5199ZM4.60254 13.3068L4.51771 13.215L4.42955 13.2965L4.50737 13.3878L4.60254 13.3068ZM5.48365 14.1915L5.40227 14.2864L5.50144 14.3714L5.58203 14.2686L5.48365 14.1915ZM6.20352 13.273L6.3019 13.3501L6.37573 13.2559L6.28483 13.1781L6.20352 13.273ZM4.3351 10.6865L4.4507 10.639L4.40165 10.5197L4.28399 10.5724L4.3351 10.6865ZM3.29163 11.154L3.24052 11.04L3.12994 11.0895L3.17602 11.2016L3.29163 11.154ZM3.86446 12.2846L3.75778 12.3498L3.82541 12.4605L3.93355 12.3888L3.86446 12.2846ZM4.82221 11.6494L4.8913 11.7536L4.9915 11.6871L4.92898 11.5844L4.82221 11.6494ZM14.1787 1.07903L14.114 1.18597V1.18597L14.1787 1.07903ZM10.3365 0L10.3366 -0.125L10.3363 -0.125L10.3365 0ZM2.74721 6.94345L2.65696 7.02992L2.83795 7.21883L2.8712 6.95934L2.74721 6.94345ZM0.802761 4.91398L0.89302 4.8275L0.802761 4.7333L0.712503 4.8275L0.802761 4.91398ZM0 5.75184L-0.0902586 5.66536L-0.173114 5.75184L-0.0902586 5.83832L0 5.75184ZM3.24 9.13349L3.14974 9.21997L3.24 9.31418L3.33026 9.21997L3.24 9.13349ZM6.48 5.75184L6.57026 5.83832L6.65311 5.75184L6.57026 5.66536L6.48 5.75184ZM5.67724 4.91398L5.76749 4.8275L5.67729 4.73336L5.58703 4.82744L5.67724 4.91398ZM3.92127 6.74435L3.79826 6.72214L3.72462 7.12989L4.01147 6.83089L3.92127 6.74435ZM9.12236 14.6946L9.14649 14.5719H9.14649L9.12236 14.6946ZM7.06078 13.8952L7.12546 13.7882L7.01461 13.7211L6.95157 13.8343L7.06078 13.8952ZM6.49022 14.9197L6.38101 14.8588L6.32234 14.9642L6.4255 15.0266L6.49022 14.9197ZM16.9649 12.0116L16.8556 11.9509V11.9509L16.9649 12.0116ZM9.48499 2.66644V2.54144H9.35999V2.66644H9.48499ZM9.48499 9.18444H9.35999V9.24534L9.40794 9.28287L9.48499 9.18444ZM11.983 11.1398L11.9059 11.2383L12.0085 11.3186L12.0845 11.2128L11.983 11.1398ZM12.6642 10.1918L12.7657 10.2647L12.8358 10.1673L12.7413 10.0933L12.6642 10.1918ZM10.6204 8.5919H10.4954V8.65279L10.5434 8.69033L10.6204 8.5919ZM10.6204 2.66644H10.7454V2.54144H10.6204V2.66644ZM5.36929 12.4281L4.51771 13.215L4.68737 13.3986L5.53896 12.6117L5.36929 12.4281ZM4.50737 13.3878C4.78273 13.7112 5.08191 14.0116 5.40227 14.2864L5.56502 14.0966C5.25464 13.8304 4.96467 13.5392 4.69771 13.2258L4.50737 13.3878ZM5.58203 14.2686L6.3019 13.3501L6.10514 13.1959L5.38526 14.1144L5.58203 14.2686ZM6.28483 13.1781C6.02139 12.9525 5.77549 12.7053 5.54942 12.439L5.35883 12.6008C5.5934 12.8771 5.84865 13.1337 6.12221 13.368L6.28483 13.1781ZM4.28399 10.5724L3.24052 11.04L3.34274 11.2681L4.38621 10.8006L4.28399 10.5724ZM3.17602 11.2016C3.33985 11.6001 3.5344 11.984 3.75778 12.3498L3.97114 12.2195C3.75467 11.865 3.56608 11.4929 3.40724 11.1065L3.17602 11.2016ZM3.93355 12.3888L4.8913 11.7536L4.75312 11.5452L3.79537 12.1804L3.93355 12.3888ZM4.92898 11.5844C4.74561 11.2832 4.58566 10.967 4.4507 10.639L4.2195 10.7341C4.3594 11.0741 4.52524 11.4019 4.71543 11.7144L4.92898 11.5844ZM14.2434 0.972082C13.0568 0.25399 11.7091 -0.124623 10.3366 -0.125L10.3365 0.125C11.6628 0.125364 12.9659 0.49121 14.114 1.18597L14.2434 0.972082ZM10.3363 -0.125C6.43148 -0.118444 3.13951 2.8989 2.62323 6.92756L2.8712 6.95934C3.37257 3.04707 6.56563 0.131331 10.3368 0.125L10.3363 -0.125ZM2.83747 6.85697L0.89302 4.8275L0.712503 5.00046L2.65696 7.02992L2.83747 6.85697ZM0.712503 4.8275L-0.0902586 5.66536L0.0902586 5.83832L0.89302 5.00046L0.712503 4.8275ZM-0.0902586 5.83832L3.14974 9.21997L3.33026 9.04702L0.0902586 5.66536L-0.0902586 5.83832ZM3.33026 9.21997L6.57026 5.83832L6.38974 5.66536L3.14974 9.04702L3.33026 9.21997ZM6.57026 5.66536L5.76749 4.8275L5.58698 5.00046L6.38974 5.83832L6.57026 5.66536ZM5.58703 4.82744L3.83106 6.65781L4.01147 6.83089L5.76744 5.00051L5.58703 4.82744ZM4.04428 6.76657C4.69992 3.13603 8.04782 0.756546 11.5144 1.43851L11.5626 1.19321C7.94977 0.482466 4.47698 2.96378 3.79826 6.72214L4.04428 6.76657ZM11.5144 1.43851C14.9826 2.1208 17.2724 5.61208 16.6166 9.24386L16.8626 9.28829C17.5411 5.53125 15.1737 1.90362 11.5626 1.19321L11.5144 1.43851ZM16.6166 9.24386C15.9609 12.8744 12.613 15.2539 9.14649 14.5719L9.09823 14.8172C12.7111 15.528 16.1839 13.0466 16.8626 9.28829L16.6166 9.24386ZM9.14649 14.5719C8.43537 14.432 7.75199 14.1671 7.12546 13.7882L6.99609 14.0021C7.64737 14.396 8.35817 14.6716 9.09823 14.8172L9.14649 14.5719ZM6.95157 13.8343L6.38101 14.8588L6.59942 14.9805L7.16998 13.956L6.95157 13.8343ZM6.4255 15.0266C10.1503 17.2806 14.9179 15.9539 17.0742 12.0723L16.8556 11.9509C14.7656 15.7133 10.1539 16.9906 6.55493 14.8127L6.4255 15.0266ZM17.0742 12.0723C19.2288 8.19369 17.9649 3.22404 14.2434 0.972082L14.114 1.18597C17.7164 3.36588 18.9473 8.18567 16.8556 11.9509L17.0742 12.0723ZM9.35999 2.66644V9.18444H9.60999V2.66644H9.35999ZM9.40794 9.28287L11.9059 11.2383L12.06 11.0414L9.56203 9.08601L9.40794 9.28287ZM12.0845 11.2128L12.7657 10.2647L12.5627 10.1188L11.8815 11.0669L12.0845 11.2128ZM12.7413 10.0933L10.6975 8.49347L10.5434 8.69033L12.5872 10.2902L12.7413 10.0933ZM10.7454 8.5919V2.66644H10.4954V8.5919H10.7454ZM10.6204 2.54144H9.48499V2.79144H10.6204V2.54144Z" transform="translate(1 1)" fill="#0070CC"/>
</svg>
