<svg width="32" height="32" viewBox="0 0 32 32" fill="none" xmlns="http://www.w3.org/2000/svg">
<path d="M21.328 10.0778C22.3635 10.0778 23.203 9.23833 23.203 8.2028C23.203 7.16727 22.3635 6.3278 21.328 6.3278C20.2925 6.3278 19.453 7.16727 19.453 8.2028C19.453 9.23833 20.2925 10.0778 21.328 10.0778Z" transform="translate(1 1)" fill="#2983CC"/>
<path d="M29.6763 9.71891C29.0505 8.12551 27.903 5.82648 25.9899 3.92243C24.0836 2.02493 21.8089 0.910252 20.2364 0.3092C18.51 -0.350622 16.5482 0.065275 15.2386 1.36869L10.6368 5.94894C9.27271 7.30661 8.87955 9.3957 9.65843 11.1474C9.89996 11.6906 10.1626 12.222 10.4433 12.7354L0.343241 22.8354C0.123456 23.0552 0 23.3533 0 23.6641V28.8203C0 29.4676 0.524646 29.9922 1.17187 29.9922H6.3281C6.97532 29.9922 7.49997 29.4676 7.49997 28.8203V26.711L9.60933 26.7109C10.2566 26.7109 10.7812 26.1863 10.7812 25.539V23.4297H12.8906C13.5378 23.4297 14.0624 22.9051 14.0624 22.2579C14.0624 21.6106 13.5378 21.086 12.8906 21.086H9.60933C8.96211 21.086 8.43746 21.6106 8.43746 22.2579V24.3672L6.3281 24.3672C5.68087 24.3672 5.15623 24.8919 5.15623 25.5391V27.6485H2.34374V24.1495L12.7356 13.7577C13.1174 13.3759 13.1889 12.7828 12.9089 12.3212C12.5028 11.6518 12.1297 10.9365 11.8001 10.1951C11.4135 9.32551 11.6105 8.28671 12.2903 7.61001L16.8921 3.02981C17.5491 2.37597 18.5334 2.16743 19.3998 2.49849C20.7604 3.01856 22.7214 3.97586 24.3366 5.58355C25.9617 7.20097 26.9511 9.19098 27.4948 10.5755C27.8341 11.4397 27.6279 12.4214 26.9695 13.0767L22.3122 17.7123C21.634 18.3872 20.6217 18.5846 19.7331 18.215C19.0003 17.9102 18.2905 17.5481 17.6238 17.1388C17.0722 16.8003 16.3506 16.973 16.012 17.5246C15.6735 18.0762 15.8461 18.7979 16.3977 19.1364C17.1684 19.6094 17.9877 20.0274 18.833 20.379C20.5991 21.1137 22.6138 20.7188 23.9655 19.3735L28.6229 14.738C29.9439 13.4232 30.3573 11.4531 29.6763 9.71891Z" transform="translate(1 1)" fill="#2983CC"/>
<path d="M29.6763 9.71891L29.7927 9.67321L29.7927 9.67321L29.6763 9.71891ZM25.9899 3.92243L25.9017 4.01102L25.9017 4.01102L25.9899 3.92243ZM20.2364 0.3092L20.281 0.192438L20.281 0.192437L20.2364 0.3092ZM15.2386 1.36869L15.1505 1.28009L15.1505 1.28009L15.2386 1.36869ZM10.6368 5.94894L10.725 6.03754L10.725 6.03754L10.6368 5.94894ZM9.65843 11.1474L9.77266 11.0966L9.77265 11.0966L9.65843 11.1474ZM10.4433 12.7354L10.5317 12.8238L10.5979 12.7576L10.553 12.6755L10.4433 12.7354ZM0.343241 22.8354L0.254853 22.747H0.254852L0.343241 22.8354ZM7.49997 26.711L7.49996 26.586L7.37497 26.586V26.711H7.49997ZM9.60933 26.7109V26.5859H9.60933L9.60933 26.7109ZM10.7812 23.4297V23.3047H10.6562V23.4297H10.7812ZM8.43746 24.3672L8.43747 24.4922L8.56246 24.4922V24.3672H8.43746ZM6.3281 24.3672V24.4922H6.3281L6.3281 24.3672ZM5.15623 27.6485V27.7735H5.28123V27.6485H5.15623ZM2.34374 27.6485H2.21874V27.7735H2.34374V27.6485ZM2.34374 24.1495L2.25535 24.0611L2.21874 24.0977V24.1495H2.34374ZM12.7356 13.7577L12.824 13.8461L12.7356 13.7577ZM12.9089 12.3212L13.0158 12.2563L13.0158 12.2563L12.9089 12.3212ZM11.8001 10.1951L11.9144 10.1443L11.9144 10.1443L11.8001 10.1951ZM12.2903 7.61001L12.2022 7.52141L12.2022 7.52141L12.2903 7.61001ZM16.8921 3.02981L16.8039 2.94121L16.8039 2.94122L16.8921 3.02981ZM19.3998 2.49849L19.4444 2.38173L19.4444 2.38172L19.3998 2.49849ZM24.3366 5.58355L24.2485 5.67215L24.2485 5.67215L24.3366 5.58355ZM27.4948 10.5755L27.6112 10.5299L27.6112 10.5299L27.4948 10.5755ZM26.9695 13.0767L26.8814 12.9881L26.8814 12.9881L26.9695 13.0767ZM22.3122 17.7123L22.4003 17.8009L22.4004 17.8009L22.3122 17.7123ZM19.7331 18.215L19.6851 18.3304H19.6851L19.7331 18.215ZM17.6238 17.1388L17.5584 17.2454L17.5584 17.2454L17.6238 17.1388ZM16.3977 19.1364L16.3324 19.2429H16.3324L16.3977 19.1364ZM18.833 20.379L18.881 20.2636L18.881 20.2636L18.833 20.379ZM23.9655 19.3735L24.0537 19.4621L24.0537 19.4621L23.9655 19.3735ZM28.6229 14.738L28.5347 14.6494L28.6229 14.738ZM23.078 8.2028C23.078 9.16929 22.2945 9.95279 21.328 9.95279V10.2028C22.4326 10.2028 23.328 9.30736 23.328 8.2028H23.078ZM21.328 9.95279C20.3615 9.95279 19.578 9.16929 19.578 8.2028H19.328C19.328 9.30736 20.2234 10.2028 21.328 10.2028V9.95279ZM19.578 8.2028C19.578 7.2363 20.3615 6.4528 21.328 6.4528V6.2028C20.2234 6.2028 19.328 7.09823 19.328 8.2028H19.578ZM21.328 6.4528C22.2945 6.4528 23.078 7.2363 23.078 8.2028H23.328C23.328 7.09823 22.4326 6.2028 21.328 6.2028V6.4528ZM29.7927 9.67321C29.1635 8.07118 28.0081 5.75469 26.0781 3.83383L25.9017 4.01102C27.798 5.89827 28.9376 8.17985 29.56 9.7646L29.7927 9.67321ZM26.0781 3.83383C24.1548 1.91948 21.8626 0.796935 20.281 0.192438L20.1917 0.425961C21.7553 1.02357 24.0123 2.13039 25.9017 4.01102L26.0781 3.83383ZM20.281 0.192437C18.5087 -0.484942 16.4949 -0.0580385 15.1505 1.28009L15.3268 1.45728C16.6015 0.188588 18.5113 -0.216302 20.1918 0.425962L20.281 0.192437ZM15.1505 1.28009L10.5486 5.86035L10.725 6.03754L15.3268 1.45728L15.1505 1.28009ZM10.5487 5.86034C9.14799 7.25439 8.74416 9.39888 9.54422 11.1981L9.77265 11.0966C9.01494 9.39253 9.39744 7.35883 10.725 6.03754L10.5487 5.86034ZM9.54421 11.1981C9.78711 11.7445 10.0513 12.2789 10.3336 12.7954L10.553 12.6755C10.274 12.1651 10.0128 11.6368 9.77266 11.0966L9.54421 11.1981ZM10.3549 12.647L0.254853 22.747L0.431629 22.9238L10.5317 12.8238L10.3549 12.647ZM0.254852 22.747C0.0116243 22.9903 -0.125 23.3201 -0.125 23.6641H0.125C0.125 23.3864 0.235289 23.1201 0.431629 22.9238L0.254852 22.747ZM-0.125 23.6641V28.8203H0.125V23.6641H-0.125ZM-0.125 28.8203C-0.125 29.5366 0.455611 30.1172 1.17187 30.1172V29.8672C0.593682 29.8672 0.125 29.3985 0.125 28.8203H-0.125ZM1.17187 30.1172H6.3281V29.8672H1.17187V30.1172ZM6.3281 30.1172C7.04436 30.1172 7.62497 29.5366 7.62497 28.8203H7.37497C7.37497 29.3985 6.90629 29.8672 6.3281 29.8672V30.1172ZM7.62497 28.8203V26.711H7.37497V28.8203H7.62497ZM7.49997 26.836L9.60934 26.8359L9.60933 26.5859L7.49996 26.586L7.49997 26.836ZM9.60933 26.8359C10.3256 26.8359 10.9062 26.2553 10.9062 25.539H10.6562C10.6562 26.1172 10.1875 26.5859 9.60933 26.5859V26.8359ZM10.9062 25.539V23.4297H10.6562V25.539H10.9062ZM10.7812 23.5547H12.8906V23.3047H10.7812V23.5547ZM12.8906 23.5547C13.6068 23.5547 14.1874 22.9741 14.1874 22.2579H13.9374C13.9374 22.836 13.4688 23.3047 12.8906 23.3047V23.5547ZM14.1874 22.2579C14.1874 21.5416 13.6068 20.961 12.8906 20.961V21.211C13.4688 21.211 13.9374 21.6797 13.9374 22.2579H14.1874ZM12.8906 20.961H9.60933V21.211H12.8906V20.961ZM9.60933 20.961C8.89307 20.961 8.31246 21.5416 8.31246 22.2579H8.56246C8.56246 21.6797 9.03115 21.211 9.60933 21.211V20.961ZM8.31246 22.2579V24.3672H8.56246V22.2579H8.31246ZM8.43746 24.2422L6.32809 24.2422L6.3281 24.4922L8.43747 24.4922L8.43746 24.2422ZM6.3281 24.2422C5.61184 24.2422 5.03123 24.8228 5.03123 25.5391H5.28123C5.28123 24.9609 5.74991 24.4922 6.3281 24.4922V24.2422ZM5.03123 25.5391V27.6485H5.28123V25.5391H5.03123ZM5.15623 27.5235H2.34374V27.7735H5.15623V27.5235ZM2.46874 27.6485V24.1495H2.21874V27.6485H2.46874ZM2.43213 24.2379L12.824 13.8461L12.6472 13.6693L2.25535 24.0611L2.43213 24.2379ZM12.824 13.8461C13.2465 13.4236 13.3257 12.7672 13.0158 12.2563L12.802 12.386C13.0522 12.7984 12.9883 13.3282 12.6472 13.6693L12.824 13.8461ZM13.0158 12.2563C12.6125 11.5916 12.2419 10.881 11.9144 10.1443L11.6859 10.2459C12.0176 10.9919 12.3931 11.7119 12.802 12.386L13.0158 12.2563ZM11.9144 10.1443C11.549 9.32259 11.735 8.33912 12.3785 7.6986L12.2022 7.52141C11.4859 8.23429 11.278 9.32843 11.6859 10.2459L11.9144 10.1443ZM12.3785 7.6986L16.9803 3.11841L16.8039 2.94122L12.2022 7.52141L12.3785 7.6986ZM16.9803 3.11841C17.6024 2.4993 18.5347 2.30174 19.3552 2.61525L19.4444 2.38172C18.5321 2.03313 17.4958 2.25264 16.8039 2.94121L16.9803 3.11841ZM19.3552 2.61525C20.7072 3.13204 22.6504 4.08153 24.2485 5.67215L24.4248 5.49496C22.7925 3.8702 20.8137 2.90509 19.4444 2.38173L19.3552 2.61525ZM24.2485 5.67215C25.8564 7.27254 26.8379 9.24488 27.3785 10.6212L27.6112 10.5299C27.0642 9.13708 26.067 7.12939 24.4248 5.49495L24.2485 5.67215ZM27.3785 10.6212C27.6996 11.439 27.5045 12.3679 26.8814 12.9881L27.0577 13.1653C27.7514 12.4749 27.9687 11.4404 27.6112 10.5299L27.3785 10.6212ZM26.8814 12.9881L22.224 17.6237L22.4004 17.8009L27.0577 13.1653L26.8814 12.9881ZM22.224 17.6237C21.5819 18.2627 20.6234 18.4499 19.7811 18.0996L19.6851 18.3304C20.62 18.7192 21.6861 18.5117 22.4003 17.8009L22.224 17.6237ZM19.7811 18.0996C19.0542 17.7973 18.3503 17.4381 17.6891 17.0323L17.5584 17.2454C18.2308 17.6581 18.9464 18.0232 19.6851 18.3304L19.7811 18.0996ZM17.6891 17.0323C17.0788 16.6576 16.2801 16.8488 15.9055 17.4592L16.1186 17.59C16.421 17.0972 17.0657 16.9429 17.5584 17.2454L17.6891 17.0323ZM15.9055 17.4592C15.5308 18.0697 15.7219 18.8683 16.3324 19.2429L16.4631 19.0299C15.9704 18.7274 15.8161 18.0828 16.1186 17.59L15.9055 17.4592ZM16.3324 19.2429C17.1086 19.7194 17.9338 20.1404 18.785 20.4944L18.881 20.2636C18.0417 19.9145 17.2281 19.4994 16.4631 19.0299L16.3324 19.2429ZM18.785 20.4944C20.5976 21.2484 22.666 20.8432 24.0537 19.4621L23.8773 19.2849C22.5615 20.5945 20.6007 20.979 18.881 20.2636L18.785 20.4944ZM24.0537 19.4621L28.711 14.8266L28.5347 14.6494L23.8773 19.2849L24.0537 19.4621ZM28.711 14.8266C30.0673 13.4767 30.4919 11.4538 29.7927 9.67321L29.56 9.7646C30.2228 11.4524 29.8204 13.3697 28.5347 14.6494L28.711 14.8266Z" transform="translate(1 1)" fill="white"/>
</svg>
