<svg width="30" height="31" viewBox="0 0 30 31" fill="none" xmlns="http://www.w3.org/2000/svg">
<path d="M27.9286 2.07418C25.1625 -0.69194 20.6613 -0.690849 17.8946 2.07418L12.8776 7.09119C12.4513 7.51747 12.4513 8.20845 12.8776 8.63472C13.3038 9.06099 13.9948 9.06099 14.4211 8.63472L19.4381 3.61771C20.3611 2.69531 21.5946 2.18662 22.911 2.18662C24.2281 2.18662 25.4616 2.69531 26.3845 3.61826C27.3075 4.54121 27.8162 5.77472 27.8162 7.09174C27.8162 8.40821 27.3075 9.64173 26.3845 10.5647L19.8245 17.1263C17.9088 19.041 14.7928 19.041 12.877 17.1263C12.4508 16.7 11.7598 16.7 11.3335 17.1263C10.9072 17.5526 10.9072 18.2441 11.3335 18.6698C12.7166 20.0529 14.5335 20.7444 16.3505 20.7444C18.1675 20.7444 19.9845 20.0529 21.3675 18.6698L27.9286 12.1088C29.2642 10.7737 29.9999 8.99168 29.9999 7.09174C29.9999 5.19126 29.2642 3.40976 27.9286 2.07418Z" fill="#2983CC"/>
<path d="M14.8071 22.1428L10.5618 26.388C9.63886 27.311 8.40535 27.8197 7.08833 27.8197C5.77185 27.8197 4.5378 27.311 3.61485 26.388C1.69963 24.4728 1.69963 21.3563 3.61485 19.4411L9.79005 13.2659C10.713 12.3434 11.9465 11.8348 13.2635 11.8348C14.58 11.8348 15.8135 12.3434 16.7365 13.2659C17.1627 13.6921 17.8537 13.6921 18.28 13.2659C18.7063 12.8396 18.7063 12.1486 18.28 11.7223C15.5144 8.95675 11.0132 8.9562 8.24597 11.7223L2.07077 17.8981C0.735741 19.2331 0 21.0151 0 22.9151C0 24.8145 0.735741 26.5965 2.07132 27.9315C3.40635 29.2671 5.18839 30.0029 7.08778 30.0029C8.98772 30.0029 10.7698 29.2671 12.1048 27.9315L16.35 23.6863C16.7763 23.26 16.7763 22.569 16.35 22.1428C15.9238 21.7165 15.2333 21.7165 14.8071 22.1428Z" fill="#2983CC"/>
<path d="M18.5573 24.0187C17.9547 24.0187 17.4657 24.5077 17.4657 25.1103V28.3851C17.4657 28.9877 17.9547 29.4767 18.5573 29.4767C19.1599 29.4767 19.6489 28.9877 19.6489 28.3851V25.1103C19.6489 24.5072 19.1604 24.0187 18.5573 24.0187Z" fill="#2983CC"/>
<path d="M22.4718 23.2469C22.0455 22.8207 21.3545 22.8207 20.9282 23.2469C20.502 23.6732 20.502 24.3642 20.9282 24.7905L23.2435 27.1058C23.4569 27.3192 23.7358 27.4256 24.0153 27.4256C24.2947 27.4256 24.5736 27.3192 24.787 27.1058C25.2133 26.6795 25.2133 25.9885 24.787 25.5622L22.4718 23.2469Z" fill="#2983CC"/>
<path d="M25.0877 19.6523H21.8129C21.2104 19.6523 20.7213 20.1413 20.7213 20.7439C20.7213 21.3464 21.2104 21.8355 21.8129 21.8355H25.0877C25.6903 21.8355 26.1793 21.3464 26.1793 20.7439C26.1793 20.1413 25.6908 19.6523 25.0877 19.6523Z" fill="#2983CC"/>
<path d="M9.82439 7.09883C10.427 7.09883 10.916 6.6098 10.916 6.00723V2.73242C10.916 2.12985 10.427 1.64082 9.82439 1.64082C9.22183 1.64082 8.73279 2.12985 8.73279 2.73242V6.00723C8.73279 6.6098 9.22183 7.09883 9.82439 7.09883Z" fill="#2983CC"/>
<path d="M5.77794 7.8706C5.99135 8.08401 6.27025 8.19044 6.5497 8.19044C6.82915 8.19044 7.10806 8.08401 7.32147 7.8706C7.74774 7.44433 7.74774 6.75334 7.32147 6.32707L5.00618 4.01123C4.5799 3.58496 3.88892 3.58496 3.46265 4.01123C3.03638 4.4375 3.03638 5.12849 3.46265 5.55476L5.77794 7.8706Z" fill="#2983CC"/>
<path d="M3.25567 11.4653H6.53048C7.13304 11.4653 7.62208 10.9762 7.62208 10.3736C7.62208 9.77108 7.13304 9.28204 6.53048 9.28204H3.25567C2.6531 9.28204 2.16406 9.77108 2.16406 10.3736C2.16406 10.9762 2.6531 11.4653 3.25567 11.4653Z" fill="#2983CC"/>
</svg>
