<svg width="30" height="31" viewBox="0 0 30 31" fill="2983CC" xmlns="http://www.w3.org/2000/svg">
<path d="M22.5024 2.01604C19.0328 0.0130599 14.9894 -0.519568 11.1184 0.517556C7.24563 1.55468 4.01048 4.0359 2.0075 7.50736C-2.12975 14.6716 0.334594 23.8669 7.49882 28.0023C9.85438 29.362 12.4313 30.009 14.9744 30.009C20.1637 30.009 25.2181 27.3178 27.9937 22.511C32.1291 15.3467 29.6648 6.15141 22.5024 2.01604ZM26.3696 21.5732C22.7481 27.841 14.7024 29.9978 8.43654 26.3782C2.16691 22.7585 0.0120161 14.7147 3.63164 8.44509C5.38518 5.40873 8.21524 3.23696 11.6042 2.32924C12.7351 2.02729 13.8829 1.87726 15.0213 1.87726C17.298 1.87726 19.543 2.47178 21.5647 3.64018C27.8306 7.2598 29.9874 15.3036 26.3696 21.5732Z" fill="#2983CC"/>
<path d="M21.3397 13.31C20.8877 11.6165 19.8018 10.2005 18.2827 9.32467C15.147 7.51299 11.1279 8.59137 9.31618 11.7271C7.50637 14.861 8.58476 18.8838 11.7186 20.6937C12.7501 21.2901 13.8754 21.5732 14.9894 21.5732C17.2587 21.5732 19.4699 20.3955 20.6833 18.2912C21.561 16.7721 21.7936 15.0035 21.3397 13.31ZM19.061 17.3535C18.4346 18.4375 17.4238 19.2139 16.2122 19.5384C15.0007 19.8628 13.7385 19.694 12.6564 19.0714C10.4171 17.7773 9.64814 14.9041 10.9403 12.6649C11.5667 11.5808 12.5776 10.8044 13.7873 10.48C14.9969 10.1555 16.261 10.3224 17.345 10.9488C18.429 11.5752 19.2036 12.5861 19.528 13.7957C19.8525 15.0054 19.6856 16.2695 19.061 17.3535Z" fill="#2983CC"/>
<path d="M19.061 17.3535L12.6155 28.5202L14.2398 29.4577L20.6855 18.2903L19.061 17.3535Z" fill="#2983CC"/>
<path d="M4.4937 6.18942L2.86951 7.12737L9.31608 18.2906L10.9403 17.3526L4.4937 6.18942Z" fill="#2983CC"/>
<path d="M27.8911 8.44479H15.0009V10.3202H27.8911V8.44479Z" fill="#2983CC"/>
</svg>
