<svg width="6" height="11" viewBox="0 0 6 11" fill="none" xmlns="http://www.w3.org/2000/svg">
<path d="M1.75098 6.92139V6.45166C1.75098 6.04541 1.83773 5.69206 2.01123 5.3916C2.18473 5.09115 2.50212 4.77165 2.96338 4.43311C3.40771 4.11572 3.69971 3.85758 3.83936 3.65869C3.98324 3.4598 4.05518 3.23763 4.05518 2.99219C4.05518 2.71712 3.95361 2.50765 3.75049 2.36377C3.54736 2.21989 3.26383 2.14795 2.8999 2.14795C2.26514 2.14795 1.5415 2.35531 0.729004 2.77002L0.0371094 1.37988C0.980794 0.850911 1.98161 0.586426 3.03955 0.586426C3.9113 0.586426 4.60319 0.795898 5.11523 1.21484C5.63151 1.63379 5.88965 2.19238 5.88965 2.89062C5.88965 3.35612 5.78385 3.75814 5.57227 4.09668C5.36068 4.43522 4.95866 4.81608 4.36621 5.23926C3.95996 5.53971 3.70182 5.76823 3.5918 5.9248C3.486 6.08138 3.43311 6.28662 3.43311 6.54053V6.92139H1.75098ZM1.54785 9.09229C1.54785 8.73682 1.64307 8.4681 1.8335 8.28613C2.02393 8.10417 2.30111 8.01318 2.66504 8.01318C3.01628 8.01318 3.28711 8.10628 3.47754 8.29248C3.6722 8.47868 3.76953 8.74528 3.76953 9.09229C3.76953 9.4266 3.6722 9.69108 3.47754 9.88574C3.28288 10.0762 3.01204 10.1714 2.66504 10.1714C2.30957 10.1714 2.03451 10.0783 1.83984 9.89209C1.64518 9.70166 1.54785 9.43506 1.54785 9.09229Z" fill="#0070CC"/>
</svg>
