<svg width="14" height="14" viewBox="0 0 14 14" fill="none" xmlns="http://www.w3.org/2000/svg">
<path d="M7.76177 1C5.22283 1 3.10176 3.08015 2.62506 5.82955L1.62939 4.40384L1 4.98076L2.61177 7.28846C2.69034 7.40062 2.8072 7.46153 2.92647 7.46153C2.98731 7.46153 3.04895 7.44583 3.10659 7.41308L5.52423 6.02845L5.1636 5.20275L3.38704 6.21999C3.71664 3.79044 5.54962 1.92307 7.76177 1.92307C10.2056 1.92307 12.1941 4.20075 12.1941 7C12.1941 9.79925 10.2056 12.0769 7.76177 12.0769V13C10.65 13 13 10.3083 13 7C13 3.6917 10.65 1 7.76177 1Z" fill="#0070CC" stroke="#0070CC" stroke-width="0.75"/>
</svg>
