<svg width="12" height="12" viewBox="0 0 12 12" fill="none" xmlns="http://www.w3.org/2000/svg">
<path d="M9.78488 7.5813C8.94407 7.5813 8.20897 8.05211 7.83528 8.7436L6.54702 6.30866L9.48986 0.725211C9.6177 0.494713 9.54149 0.1882 9.2858 0.0606901C9.0547 -0.0668195 8.74739 0.0091958 8.61954 0.264215L5.98894 5.25425L3.36816 0.288736C3.24032 0.0582379 2.95759 -0.0422984 2.70191 0.0852111C2.47081 0.212721 2.37001 0.494713 2.49785 0.749732L5.44069 6.2964L4.15734 8.72889C3.77873 8.04475 3.05101 7.5813 2.21512 7.5813C0.993239 7.5813 0 8.57195 0 9.79065C0 11.0093 0.993239 12 2.21512 12C3.12723 12 3.91395 11.4458 4.25323 10.6587L5.99877 7.34345L7.70744 10.5606C8.02213 11.3992 8.83344 11.9975 9.78488 11.9975C11.0068 11.9975 12 11.0069 12 9.7882C12 8.5695 11.0067 7.5813 9.78488 7.5813ZM2.21512 10.9971C1.54886 10.9971 1.00799 10.4576 1.00799 9.7931C1.00799 9.12858 1.54886 8.58912 2.21512 8.58912C2.88138 8.58912 3.42225 9.12858 3.42225 9.7931C3.42225 10.4576 2.88138 10.9971 2.21512 10.9971ZM9.78488 10.9971C9.11862 10.9971 8.57775 10.4576 8.57775 9.7931C8.57775 9.12858 9.11862 8.58912 9.78488 8.58912C10.4511 8.58912 10.992 9.12858 10.992 9.7931C10.992 10.4576 10.4511 10.9971 9.78488 10.9971Z" fill="#909090"/>
</svg>
