<svg width="30" height="30" viewBox="0 0 30 30" fill="none" xmlns="http://www.w3.org/2000/svg">
<path d="M29.9862 7.0726C29.9862 6.95863 29.9587 6.84466 29.9037 6.73702C29.7937 6.52174 29.5805 6.37611 29.3466 6.33179L15.337 0.0759814C15.11 -0.0253271 14.8418 -0.0253271 14.6149 0.0759814L0.467675 6.38877C0.192572 6.50908 0.0137552 6.76235 0 7.04728V7.05361C0 7.05994 0 7.06627 0 7.07894V22.9211C0 23.2123 0.178817 23.4783 0.467675 23.6049L14.6149 29.9177C14.6217 29.9177 14.6217 29.9177 14.6286 29.924C14.6492 29.9304 14.6699 29.9367 14.6905 29.9493C14.6974 29.9493 14.7043 29.9557 14.718 29.9557C14.7387 29.962 14.7593 29.9683 14.7799 29.9747C14.7868 29.9747 14.7937 29.981 14.8005 29.981C14.8212 29.9873 14.8487 29.9873 14.8693 29.9937C14.8762 29.9937 14.8831 29.9937 14.89 29.9937C14.9175 29.9937 14.9519 30 14.9794 30C15.0069 30 15.0413 30 15.0688 29.9937C15.0757 29.9937 15.0825 29.9937 15.0894 29.9937C15.11 29.9937 15.1376 29.9873 15.1582 29.981C15.1651 29.981 15.1719 29.9747 15.1788 29.9747C15.1994 29.9683 15.2201 29.962 15.2407 29.9557C15.2476 29.9557 15.2545 29.9493 15.2682 29.9493C15.2889 29.943 15.3095 29.9367 15.3301 29.924C15.337 29.924 15.337 29.924 15.3439 29.9177L29.5323 23.5859C29.8143 23.4593 30 23.1933 30 22.9021V7.0916C29.9862 7.08527 29.9862 7.07894 29.9862 7.0726ZM14.9725 1.60194L27.2421 7.07894L22.7235 9.09878L10.4539 3.62178L14.9725 1.60194ZM14.9725 12.5559L2.70289 7.07894L8.56259 4.46391L20.8322 9.9409L14.9725 12.5559ZM1.65062 8.30097L14.1472 13.8793V28.0182L1.65062 22.4398V8.30097ZM15.7978 28.0182V13.8793L21.6644 11.2579V14.9557C21.6644 15.3736 22.0358 15.7155 22.4897 15.7155C22.9436 15.7155 23.315 15.3736 23.315 14.9557V10.5171L28.3356 8.27564V22.4145L15.7978 28.0182Z" fill="#73b9f2"/>
</svg>
